{
  "asset": {
    "generator": "Khronos glTF Blender I/O v4.2.57",
    "version": "2.0"
  },
  "extensionsUsed": ["KHR_materials_specular"],
  "scene": 0,
  "scenes": [
    {
      "name": "Scene",
      "nodes": [7]
    }
  ],
  "nodes": [
    {
      "name": "skp1395_1_"
    },
    {
      "children": [0],
      "name": "Group1"
    },
    {
      "mesh": 0,
      "name": "Mesh01"
    },
    {
      "mesh": 1,
      "name": "Mesh02"
    },
    {
      "mesh": 2,
      "name": "Mesh03"
    },
    {
      "children": [2, 3, 4],
      "name": "Object_0_6"
    },
    {
      "children": [5],
      "name": "skpADB7_1"
    },
    {
      "children": [1, 6],
      "name": "Model"
    }
  ],
  "animations": [
    {
      "channels": [
        {
          "sampler": 0,
          "target": {
            "node": 7,
            "path": "translation"
          }
        },
        {
          "sampler": 1,
          "target": {
            "node": 7,
            "path": "rotation"
          }
        },
        {
          "sampler": 2,
          "target": {
            "node": 7,
            "path": "scale"
          }
        }
      ],
      "name": "ModelAction",
      "samplers": [
        {
          "input": 24,
          "interpolation": "LINEAR",
          "output": 25
        },
        {
          "input": 24,
          "interpolation": "LINEAR",
          "output": 26
        },
        {
          "input": 24,
          "interpolation": "LINEAR",
          "output": 27
        }
      ]
    },
    {
      "channels": [
        {
          "sampler": 0,
          "target": {
            "node": 1,
            "path": "translation"
          }
        },
        {
          "sampler": 1,
          "target": {
            "node": 1,
            "path": "rotation"
          }
        },
        {
          "sampler": 2,
          "target": {
            "node": 1,
            "path": "scale"
          }
        }
      ],
      "name": "Group1Action",
      "samplers": [
        {
          "input": 24,
          "interpolation": "LINEAR",
          "output": 28
        },
        {
          "input": 24,
          "interpolation": "LINEAR",
          "output": 29
        },
        {
          "input": 24,
          "interpolation": "LINEAR",
          "output": 30
        }
      ]
    },
    {
      "channels": [
        {
          "sampler": 0,
          "target": {
            "node": 0,
            "path": "translation"
          }
        },
        {
          "sampler": 1,
          "target": {
            "node": 0,
            "path": "rotation"
          }
        },
        {
          "sampler": 2,
          "target": {
            "node": 0,
            "path": "scale"
          }
        }
      ],
      "name": "skp1395_1_Action",
      "samplers": [
        {
          "input": 24,
          "interpolation": "LINEAR",
          "output": 31
        },
        {
          "input": 24,
          "interpolation": "LINEAR",
          "output": 32
        },
        {
          "input": 24,
          "interpolation": "LINEAR",
          "output": 33
        }
      ]
    },
    {
      "channels": [
        {
          "sampler": 0,
          "target": {
            "node": 6,
            "path": "translation"
          }
        },
        {
          "sampler": 1,
          "target": {
            "node": 6,
            "path": "rotation"
          }
        },
        {
          "sampler": 2,
          "target": {
            "node": 6,
            "path": "scale"
          }
        }
      ],
      "name": "skpADB7_1Action",
      "samplers": [
        {
          "input": 24,
          "interpolation": "LINEAR",
          "output": 34
        },
        {
          "input": 24,
          "interpolation": "LINEAR",
          "output": 35
        },
        {
          "input": 24,
          "interpolation": "LINEAR",
          "output": 36
        }
      ]
    },
    {
      "channels": [
        {
          "sampler": 0,
          "target": {
            "node": 5,
            "path": "translation"
          }
        },
        {
          "sampler": 1,
          "target": {
            "node": 5,
            "path": "rotation"
          }
        },
        {
          "sampler": 2,
          "target": {
            "node": 5,
            "path": "scale"
          }
        }
      ],
      "name": "Object_0_6Action",
      "samplers": [
        {
          "input": 24,
          "interpolation": "LINEAR",
          "output": 37
        },
        {
          "input": 24,
          "interpolation": "LINEAR",
          "output": 38
        },
        {
          "input": 24,
          "interpolation": "LINEAR",
          "output": 39
        }
      ]
    },
    {
      "channels": [
        {
          "sampler": 0,
          "target": {
            "node": 2,
            "path": "translation"
          }
        },
        {
          "sampler": 1,
          "target": {
            "node": 2,
            "path": "rotation"
          }
        },
        {
          "sampler": 2,
          "target": {
            "node": 2,
            "path": "scale"
          }
        }
      ],
      "name": "Mesh01Action",
      "samplers": [
        {
          "input": 24,
          "interpolation": "LINEAR",
          "output": 40
        },
        {
          "input": 24,
          "interpolation": "LINEAR",
          "output": 41
        },
        {
          "input": 24,
          "interpolation": "LINEAR",
          "output": 42
        }
      ]
    },
    {
      "channels": [
        {
          "sampler": 0,
          "target": {
            "node": 3,
            "path": "translation"
          }
        },
        {
          "sampler": 1,
          "target": {
            "node": 3,
            "path": "rotation"
          }
        },
        {
          "sampler": 2,
          "target": {
            "node": 3,
            "path": "scale"
          }
        }
      ],
      "name": "Mesh02Action",
      "samplers": [
        {
          "input": 24,
          "interpolation": "LINEAR",
          "output": 43
        },
        {
          "input": 24,
          "interpolation": "LINEAR",
          "output": 44
        },
        {
          "input": 24,
          "interpolation": "LINEAR",
          "output": 45
        }
      ]
    },
    {
      "channels": [
        {
          "sampler": 0,
          "target": {
            "node": 4,
            "path": "translation"
          }
        },
        {
          "sampler": 1,
          "target": {
            "node": 4,
            "path": "rotation"
          }
        },
        {
          "sampler": 2,
          "target": {
            "node": 4,
            "path": "scale"
          }
        }
      ],
      "name": "Mesh03Action",
      "samplers": [
        {
          "input": 24,
          "interpolation": "LINEAR",
          "output": 46
        },
        {
          "input": 24,
          "interpolation": "LINEAR",
          "output": 47
        },
        {
          "input": 24,
          "interpolation": "LINEAR",
          "output": 48
        }
      ]
    }
  ],
  "materials": [
    {
      "doubleSided": true,
      "extensions": {
        "KHR_materials_specular": {
          "specularFactor": 0,
          "specularColorFactor": [0.3294117748737335, 0.3294117748737335, 0.3294117748737335]
        }
      },
      "name": "MF_Larei",
      "pbrMetallicRoughness": {
        "baseColorFactor": [0.3529411852359772, 0.3607843220233917, 0.3490196168422699, 1],
        "metallicFactor": 0
      }
    },
    {
      "alphaMode": "BLEND",
      "doubleSided": true,
      "extensions": {
        "KHR_materials_specular": {
          "specularFactor": 0,
          "specularColorFactor": [0.3294117748737335, 0.3294117748737335, 0.3294117748737335]
        }
      },
      "name": "MF_Vidro",
      "pbrMetallicRoughness": {
        "baseColorFactor": [0, 0, 0, 0.11999999731779099],
        "metallicFactor": 0
      }
    },
    {
      "doubleSided": true,
      "extensions": {
        "KHR_materials_specular": {
          "specularFactor": 0,
          "specularColorFactor": [0.3294117748737335, 0.3294117748737335, 0.3294117748737335]
        }
      },
      "name": "LareiraA",
      "pbrMetallicRoughness": {
        "baseColorFactor": [0.8980392217636108, 0.8980392217636108, 0.8745098114013672, 1],
        "metallicFactor": 0
      }
    },
    {
      "doubleSided": true,
      "extensions": {
        "KHR_materials_specular": {
          "specularFactor": 0,
          "specularColorFactor": [0.3294117748737335, 0.3294117748737335, 0.3294117748737335]
        }
      },
      "name": "Lareira_",
      "pbrMetallicRoughness": {
        "baseColorTexture": {
          "index": 0
        },
        "metallicFactor": 0
      }
    },
    {
      "doubleSided": true,
      "extensions": {
        "KHR_materials_specular": {
          "specularFactor": 0,
          "specularColorFactor": [0.3294117748737335, 0.3294117748737335, 0.3294117748737335]
        }
      },
      "name": "Foregrou",
      "pbrMetallicRoughness": {
        "baseColorFactor": [0, 0, 0, 1],
        "metallicFactor": 0
      }
    }
  ],
  "meshes": [
    {
      "name": "Mesh01",
      "primitives": [
        {
          "attributes": {
            "POSITION": 0,
            "NORMAL": 1,
            "TEXCOORD_0": 2
          },
          "indices": 3,
          "material": 0
        },
        {
          "attributes": {
            "POSITION": 4,
            "NORMAL": 5,
            "TEXCOORD_0": 6
          },
          "indices": 7,
          "material": 1
        },
        {
          "attributes": {
            "POSITION": 8,
            "NORMAL": 9,
            "TEXCOORD_0": 10
          },
          "indices": 11,
          "material": 2
        }
      ]
    },
    {
      "name": "Mesh02",
      "primitives": [
        {
          "attributes": {
            "POSITION": 12,
            "NORMAL": 13,
            "TEXCOORD_0": 14
          },
          "indices": 15,
          "material": 3
        },
        {
          "attributes": {
            "POSITION": 16,
            "NORMAL": 17,
            "TEXCOORD_0": 18
          },
          "indices": 19,
          "material": 0
        }
      ]
    },
    {
      "name": "Mesh03",
      "primitives": [
        {
          "attributes": {
            "POSITION": 20,
            "NORMAL": 21,
            "TEXCOORD_0": 22
          },
          "indices": 23,
          "material": 4
        }
      ]
    }
  ],
  "textures": [
    {
      "sampler": 0,
      "source": 0
    }
  ],
  "images": [
    {
      "mimeType": "image/jpeg",
      "name": "Lareira_",
      "uri": "Lareira_.jpg"
    }
  ],
  "accessors": [
    {
      "bufferView": 0,
      "componentType": 5126,
      "count": 4731,
      "max": [0.5092012286186218, 0.7442701458930969, 0.5384287238121033],
      "min": [-0.00936950370669365, -0.030000148341059685, 0.052259188145399094],
      "type": "VEC3"
    },
    {
      "bufferView": 1,
      "componentType": 5126,
      "count": 4731,
      "type": "VEC3"
    },
    {
      "bufferView": 2,
      "componentType": 5126,
      "count": 4731,
      "type": "VEC2"
    },
    {
      "bufferView": 3,
      "componentType": 5123,
      "count": 6792,
      "type": "SCALAR"
    },
    {
      "bufferView": 4,
      "componentType": 5126,
      "count": 4,
      "max": [0.4198305606842041, 0.5978014469146729, 0.5211794972419739],
      "min": [0.08000119775533676, 0.3103809058666229, 0.5211794972419739],
      "type": "VEC3"
    },
    {
      "bufferView": 5,
      "componentType": 5126,
      "count": 4,
      "type": "VEC3"
    },
    {
      "bufferView": 6,
      "componentType": 5126,
      "count": 4,
      "type": "VEC2"
    },
    {
      "bufferView": 7,
      "componentType": 5123,
      "count": 6,
      "type": "SCALAR"
    },
    {
      "bufferView": 8,
      "componentType": 5126,
      "count": 2968,
      "max": [0.2747385799884796, 0.2962799072265625, 0.5244895815849304],
      "min": [0.23044902086257935, 0.2655380368232727, 0.5211794972419739],
      "type": "VEC3"
    },
    {
      "bufferView": 9,
      "componentType": 5126,
      "count": 2968,
      "type": "VEC3"
    },
    {
      "bufferView": 10,
      "componentType": 5126,
      "count": 2968,
      "type": "VEC2"
    },
    {
      "bufferView": 11,
      "componentType": 5123,
      "count": 3765,
      "type": "SCALAR"
    },
    {
      "bufferView": 12,
      "componentType": 5126,
      "count": 225,
      "max": [0.4948578178882599, 0.5216708779335022, 0.4902859628200531],
      "min": [0.004973939154297113, 0.2679021954536438, 0.09639286249876022],
      "type": "VEC3"
    },
    {
      "bufferView": 13,
      "componentType": 5126,
      "count": 225,
      "type": "VEC3"
    },
    {
      "bufferView": 14,
      "componentType": 5126,
      "count": 225,
      "type": "VEC2"
    },
    {
      "bufferView": 15,
      "componentType": 5123,
      "count": 381,
      "type": "SCALAR"
    },
    {
      "bufferView": 16,
      "componentType": 5126,
      "count": 87,
      "max": [0.4948578178882599, 0.6540719270706177, 0.5156629085540771],
      "min": [0.004973939154297113, 0.2679021954536438, 0.09639286249876022],
      "type": "VEC3"
    },
    {
      "bufferView": 17,
      "componentType": 5126,
      "count": 87,
      "type": "VEC3"
    },
    {
      "bufferView": 18,
      "componentType": 5126,
      "count": 87,
      "type": "VEC2"
    },
    {
      "bufferView": 19,
      "componentType": 5123,
      "count": 147,
      "type": "SCALAR"
    },
    {
      "bufferView": 20,
      "componentType": 5126,
      "count": 5,
      "max": [0.08002877980470657, 0.3103809058666229, 0.5211794972419739],
      "min": [0.07997361570596695, 0.3103809058666229, 0.5156629085540771],
      "type": "VEC3"
    },
    {
      "bufferView": 21,
      "componentType": 5126,
      "count": 5,
      "type": "VEC3"
    },
    {
      "bufferView": 22,
      "componentType": 5126,
      "count": 5,
      "type": "VEC2"
    },
    {
      "bufferView": 23,
      "componentType": 5123,
      "count": 6,
      "type": "SCALAR"
    },
    {
      "bufferView": 24,
      "componentType": 5126,
      "count": 1,
      "max": [0],
      "min": [0],
      "type": "SCALAR"
    },
    {
      "bufferView": 25,
      "componentType": 5126,
      "count": 1,
      "type": "VEC3"
    },
    {
      "bufferView": 26,
      "componentType": 5126,
      "count": 1,
      "type": "VEC4"
    },
    {
      "bufferView": 27,
      "componentType": 5126,
      "count": 1,
      "type": "VEC3"
    },
    {
      "bufferView": 28,
      "componentType": 5126,
      "count": 1,
      "type": "VEC3"
    },
    {
      "bufferView": 29,
      "componentType": 5126,
      "count": 1,
      "type": "VEC4"
    },
    {
      "bufferView": 30,
      "componentType": 5126,
      "count": 1,
      "type": "VEC3"
    },
    {
      "bufferView": 31,
      "componentType": 5126,
      "count": 1,
      "type": "VEC3"
    },
    {
      "bufferView": 32,
      "componentType": 5126,
      "count": 1,
      "type": "VEC4"
    },
    {
      "bufferView": 33,
      "componentType": 5126,
      "count": 1,
      "type": "VEC3"
    },
    {
      "bufferView": 34,
      "componentType": 5126,
      "count": 1,
      "type": "VEC3"
    },
    {
      "bufferView": 35,
      "componentType": 5126,
      "count": 1,
      "type": "VEC4"
    },
    {
      "bufferView": 36,
      "componentType": 5126,
      "count": 1,
      "type": "VEC3"
    },
    {
      "bufferView": 37,
      "componentType": 5126,
      "count": 1,
      "type": "VEC3"
    },
    {
      "bufferView": 38,
      "componentType": 5126,
      "count": 1,
      "type": "VEC4"
    },
    {
      "bufferView": 39,
      "componentType": 5126,
      "count": 1,
      "type": "VEC3"
    },
    {
      "bufferView": 40,
      "componentType": 5126,
      "count": 1,
      "type": "VEC3"
    },
    {
      "bufferView": 41,
      "componentType": 5126,
      "count": 1,
      "type": "VEC4"
    },
    {
      "bufferView": 42,
      "componentType": 5126,
      "count": 1,
      "type": "VEC3"
    },
    {
      "bufferView": 43,
      "componentType": 5126,
      "count": 1,
      "type": "VEC3"
    },
    {
      "bufferView": 44,
      "componentType": 5126,
      "count": 1,
      "type": "VEC4"
    },
    {
      "bufferView": 45,
      "componentType": 5126,
      "count": 1,
      "type": "VEC3"
    },
    {
      "bufferView": 46,
      "componentType": 5126,
      "count": 1,
      "type": "VEC3"
    },
    {
      "bufferView": 47,
      "componentType": 5126,
      "count": 1,
      "type": "VEC4"
    },
    {
      "bufferView": 48,
      "componentType": 5126,
      "count": 1,
      "type": "VEC3"
    }
  ],
  "bufferViews": [
    {
      "buffer": 0,
      "byteLength": 56772,
      "byteOffset": 0,
      "target": 34962
    },
    {
      "buffer": 0,
      "byteLength": 56772,
      "byteOffset": 56772,
      "target": 34962
    },
    {
      "buffer": 0,
      "byteLength": 37848,
      "byteOffset": 113544,
      "target": 34962
    },
    {
      "buffer": 0,
      "byteLength": 13584,
      "byteOffset": 151392,
      "target": 34963
    },
    {
      "buffer": 0,
      "byteLength": 48,
      "byteOffset": 164976,
      "target": 34962
    },
    {
      "buffer": 0,
      "byteLength": 48,
      "byteOffset": 165024,
      "target": 34962
    },
    {
      "buffer": 0,
      "byteLength": 32,
      "byteOffset": 165072,
      "target": 34962
    },
    {
      "buffer": 0,
      "byteLength": 12,
      "byteOffset": 165104,
      "target": 34963
    },
    {
      "buffer": 0,
      "byteLength": 35616,
      "byteOffset": 165116,
      "target": 34962
    },
    {
      "buffer": 0,
      "byteLength": 35616,
      "byteOffset": 200732,
      "target": 34962
    },
    {
      "buffer": 0,
      "byteLength": 23744,
      "byteOffset": 236348,
      "target": 34962
    },
    {
      "buffer": 0,
      "byteLength": 7530,
      "byteOffset": 260092,
      "target": 34963
    },
    {
      "buffer": 0,
      "byteLength": 2700,
      "byteOffset": 267624,
      "target": 34962
    },
    {
      "buffer": 0,
      "byteLength": 2700,
      "byteOffset": 270324,
      "target": 34962
    },
    {
      "buffer": 0,
      "byteLength": 1800,
      "byteOffset": 273024,
      "target": 34962
    },
    {
      "buffer": 0,
      "byteLength": 762,
      "byteOffset": 274824,
      "target": 34963
    },
    {
      "buffer": 0,
      "byteLength": 1044,
      "byteOffset": 275588,
      "target": 34962
    },
    {
      "buffer": 0,
      "byteLength": 1044,
      "byteOffset": 276632,
      "target": 34962
    },
    {
      "buffer": 0,
      "byteLength": 696,
      "byteOffset": 277676,
      "target": 34962
    },
    {
      "buffer": 0,
      "byteLength": 294,
      "byteOffset": 278372,
      "target": 34963
    },
    {
      "buffer": 0,
      "byteLength": 60,
      "byteOffset": 278668,
      "target": 34962
    },
    {
      "buffer": 0,
      "byteLength": 60,
      "byteOffset": 278728,
      "target": 34962
    },
    {
      "buffer": 0,
      "byteLength": 40,
      "byteOffset": 278788,
      "target": 34962
    },
    {
      "buffer": 0,
      "byteLength": 12,
      "byteOffset": 278828,
      "target": 34963
    },
    {
      "buffer": 0,
      "byteLength": 4,
      "byteOffset": 278840
    },
    {
      "buffer": 0,
      "byteLength": 12,
      "byteOffset": 278844
    },
    {
      "buffer": 0,
      "byteLength": 16,
      "byteOffset": 278856
    },
    {
      "buffer": 0,
      "byteLength": 12,
      "byteOffset": 278872
    },
    {
      "buffer": 0,
      "byteLength": 12,
      "byteOffset": 278884
    },
    {
      "buffer": 0,
      "byteLength": 16,
      "byteOffset": 278896
    },
    {
      "buffer": 0,
      "byteLength": 12,
      "byteOffset": 278912
    },
    {
      "buffer": 0,
      "byteLength": 12,
      "byteOffset": 278924
    },
    {
      "buffer": 0,
      "byteLength": 16,
      "byteOffset": 278936
    },
    {
      "buffer": 0,
      "byteLength": 12,
      "byteOffset": 278952
    },
    {
      "buffer": 0,
      "byteLength": 12,
      "byteOffset": 278964
    },
    {
      "buffer": 0,
      "byteLength": 16,
      "byteOffset": 278976
    },
    {
      "buffer": 0,
      "byteLength": 12,
      "byteOffset": 278992
    },
    {
      "buffer": 0,
      "byteLength": 12,
      "byteOffset": 279004
    },
    {
      "buffer": 0,
      "byteLength": 16,
      "byteOffset": 279016
    },
    {
      "buffer": 0,
      "byteLength": 12,
      "byteOffset": 279032
    },
    {
      "buffer": 0,
      "byteLength": 12,
      "byteOffset": 279044
    },
    {
      "buffer": 0,
      "byteLength": 16,
      "byteOffset": 279056
    },
    {
      "buffer": 0,
      "byteLength": 12,
      "byteOffset": 279072
    },
    {
      "buffer": 0,
      "byteLength": 12,
      "byteOffset": 279084
    },
    {
      "buffer": 0,
      "byteLength": 16,
      "byteOffset": 279096
    },
    {
      "buffer": 0,
      "byteLength": 12,
      "byteOffset": 279112
    },
    {
      "buffer": 0,
      "byteLength": 12,
      "byteOffset": 279124
    },
    {
      "buffer": 0,
      "byteLength": 16,
      "byteOffset": 279136
    },
    {
      "buffer": 0,
      "byteLength": 12,
      "byteOffset": 279152
    }
  ],
  "samplers": [
    {
      "magFilter": 9729,
      "minFilter": 9987
    }
  ],
  "buffers": [
    {
      "byteLength": 279164,
      "uri": "delicatta_dicanto.bin"
    }
  ]
}
