<?xml version="1.0" standalone="no"?>
<!DOCTYPE svg PUBLIC "-//W3C//DTD SVG 20010904//EN"
 "http://www.w3.org/TR/2001/REC-SVG-20010904/DTD/svg10.dtd">
<svg version="1.0" xmlns="http://www.w3.org/2000/svg"
 width="200.000000pt" height="200.000000pt" viewBox="0 0 200.000000 200.000000"
 preserveAspectRatio="xMidYMid meet">

<g transform="translate(0.000000,200.000000) scale(0.100000,-0.100000)"
fill="#FF0000" stroke="none">
<path d="M48 1874 c-17 -9 -31 -28 -38 -52 -8 -25 -10 -252 -8 -730 l3 -694
28 -24 28 -24 940 0 940 0 24 25 25 24 0 716 0 717 -29 29 -29 29 -929 0
c-798 -1 -932 -3 -955 -16z m632 -300 c0 -8 14 -27 30 -41 19 -16 30 -34 30
-51 1 -26 1 -26 15 -8 13 17 15 18 21 2 8 -22 -14 -73 -40 -91 -11 -8 -36 -15
-54 -15 l-34 0 26 31 c27 32 31 50 16 84 -7 17 -9 17 -9 3 -1 -10 -12 -25 -25
-34 -16 -10 -26 -27 -28 -47 l-4 -32 -19 32 c-11 18 -23 33 -27 33 -12 0 -9
-35 4 -48 9 -9 8 -12 -5 -12 -27 0 -57 37 -57 69 0 18 10 41 25 58 23 26 26
26 36 11 14 -24 29 -23 29 2 0 22 41 70 60 70 5 0 10 -7 10 -16z m-120 -349
c45 -58 85 -105 90 -105 4 0 45 47 91 105 l83 105 131 0 c97 0 136 -4 151 -14
18 -14 19 -31 22 -339 3 -299 1 -325 -15 -345 -21 -24 -23 -25 -175 -23 l-118
1 -2 160 -3 160 -70 -93 c-93 -122 -97 -122 -190 0 l-70 93 -3 -160 -2 -160
-140 0 c-136 0 -140 1 -155 24 -14 20 -15 67 -13 346 3 305 4 322 22 336 15
10 54 14 152 14 l131 0 83 -105z m47 90 c5 -14 8 -14 25 2 16 14 23 15 39 5
14 -9 23 -9 38 -1 26 17 53 4 49 -22 -5 -32 -36 -49 -52 -27 -11 15 -13 15
-24 -3 -14 -22 -33 -24 -50 -7 -7 7 -28 11 -47 9 -31 -2 -35 0 -35 22 0 13 3
27 7 30 12 13 44 7 50 -8z m1259 -9 c9 -13 14 -45 14 -88 l0 -68 -205 0 -205
0 0 -50 0 -50 119 0 c145 0 151 -4 151 -112 l0 -68 -135 0 -135 0 0 -130 0
-130 -134 0 c-109 0 -138 3 -150 16 -14 13 -16 58 -16 341 0 292 2 328 17 345
16 18 35 19 341 16 307 -3 324 -4 338 -22z"/>
</g>
</svg>
